<?xml version="1.0" encoding="UTF-8"?>
<svg xmlns="http://www.w3.org/2000/svg" viewBox="0 0 288 288">
  <g id="Layer_2" data-name="Layer 2">
    <path d="m54.66,154.25c0-5.67.5-11.23,1.46-16.62l-11.09,6.22c-.34,3.42-.51,6.89-.51,10.4,0,22.54,7.13,43.41,19.26,60.49l8.38-5.72c-11.02-15.45-17.5-34.35-17.5-54.77Z" style="fill: #66499e;"/>
    <path d="m243.08,108.45c-1.21-2.49-2.52-4.92-3.92-7.29-8.19-13.86-19.48-25.67-32.92-34.46-2.44-1.6-4.96-3.1-7.54-4.49-14.77-7.98-31.67-12.51-49.62-12.51-44.72,0-82.88,28.08-97.82,67.56l13.96-6.42c15.71-30.3,47.36-51,83.86-51,16.32,0,31.66,4.14,45.05,11.43-1.01,3.13-1.55,6.47-1.55,9.94,0,18,14.6,32.6,32.6,32.6,3,0,5.9-.41,8.66-1.17,3.78,7.68,6.54,15.94,8.12,24.62l9.19-5.74c-1.79-8.08-4.52-15.81-8.07-23.07Zm-19.67-1.34c-13.18,0-23.86-10.68-23.86-23.86,0-2.78.47-5.44,1.35-7.92,11.98,7.88,22.06,18.41,29.4,30.77-2.18.66-4.49,1.01-6.89,1.01Z" style="fill: #66499e;"/>
    <path d="m243.31,160c-2.28,37.99-27.02,69.93-61.13,82.7-1.05-19.94-17.55-35.78-37.75-35.78-18.87,0-34.51,13.83-37.33,31.92-7.54-3.75-14.51-8.47-20.73-14.01l-9.12,5.4c8.66,8.18,18.7,14.9,29.76,19.76,2.45,1.09,4.96,2.08,7.51,2.96,10.82,3.8,22.45,5.86,34.56,5.86,8.32,0,16.41-.97,24.17-2.82,2.67-.62,5.3-1.35,7.88-2.19,42.06-13.53,72.5-52.98,72.5-99.55v-.17l-10.32,5.92Zm-94.23,88.67c-12.46,0-24.37-2.42-35.26-6.81,1.79-15.27,14.78-27.12,30.53-27.12,16.83,0,30.49,13.53,30.73,30.3-8.26,2.36-16.98,3.63-26,3.63Z" style="fill: #66499e;"/>
  </g>
  <g id="Layer_3" data-name="Layer 3">
    <path d="m100.58,131.79c-12.49,0-22.62,9.94-22.62,22.2s10.13,22.2,22.62,22.2,22.62-9.94,22.62-22.2-10.13-22.2-22.62-22.2Zm0,37.36c-8.59,0-15.56-6.83-15.56-15.27s6.97-15.27,15.56-15.27,15.56,6.83,15.56,15.27-6.97,15.27-15.56,15.27Z" style="fill: #66499e;"/>
  </g>
  <g id="Layer_4" data-name="Layer 4">
    <circle cx="200.31" cy="131.54" r="4.67" style="fill: #66499e;"/>
    <circle cx="200.31" cy="198.44" r="7.73" style="fill: #66499e;"/>
    <circle cx="150.13" cy="150.39" r="2.84" style="fill: #66499e;"/>
  </g>
  <g id="Layer_5" data-name="Layer 5">
    <path d="m37.49,169.15s-16.38.28-21.12-2.32c-6.04-3.33-7.83-9.02-4.78-15.17,1.81-3.64,4.54-6.51,7.63-9.07,12.59-10.43,26.95-17.95,41.6-24.94,21.4-10.21,43.44-18.85,65.97-26.23,1.85-.61,2.69-1.46,2.93-3.52,1.23-10.38,9.32-18.02,20.53-18.36,10.39-.32,19.8,8.2,20.95,18.35,1.1,9.65-4.01,18.23-13.07,21.96-8.68,3.57-18.4.91-24.44-6.78-1.01-1.29-1.75-2.14-3.69-1.47-25.45,8.82-50.58,18.43-74.57,30.78-10.13,5.21-20.02,10.82-28.81,18.14-1.38,1.15-2.69,2.41-3.85,3.77-2.11,2.48-.74,3.47,2.59,3.66s11.54.23,11.54.23l.57,10.98Zm102.88-78.54c.05,5.56,4.69,10.07,10.26,9.96,5.32-.1,9.92-4.84,9.85-10.15-.07-5.51-4.7-9.96-10.33-9.93-5.38.03-9.83,4.63-9.78,10.12Z" style="fill: #44a9e0;"/>
    <path d="m96.13,253.83s-12.1,1.94-17.55,2.53c-8.04.87-16.1,1.1-24.15.11-3.21-.39-6.24-1.23-9.01-2.96-5.05-3.15-6.68-8.48-4.14-13.85,2.84-6.01,7.96-9.91,13.11-13.68,15.25-11.17,32.31-19.05,49.44-26.76,25.55-11.5,52.39-19.57,78.61-29.3,17.53-6.5,34.69-13.89,51.25-22.57,8.98-4.71,17.83-9.68,25.77-16.07,1.99-1.6,3.81-3.34,5.43-5.3,1.32-1.59,1-2.73-1.08-3.21-1.1-.26-7.95-.62-7.95-.62l-3.4-11.2s12.45.38,17.31,2.65c7.33,3.42,9.21,10.27,4.75,16.99-3.37,5.09-7.96,8.98-12.89,12.45-14.52,10.19-30.43,17.8-46.55,25.04-22.88,10.27-46.68,18.07-70.26,26.51-24.41,8.73-48.36,18.55-70.87,31.54-6.34,3.66-12.65,7.39-18.14,12.32-.7.63-1.46,1.21-2.04,1.93-.09.11-.18.21-.28.32-1.54,1.62-.61,4.32,1.58,4.75,8.79,1.72,27.13-.15,27.13-.15l13.92,8.52Z" style="fill: #44a9e0;"/>
  </g>
  <g id="Layer_6" data-name="Layer 6">
    <path d="m33.09,198.48c-.12.74-.78.91-1.42,1.05-5.78,1.23-9.23,4.76-10.46,10.51-.14.65-.33,1.38-1.19,1.29-.66-.07-.79-.71-.91-1.27-1.29-5.83-4.8-9.42-10.72-10.6-.55-.11-1.14-.37-1.12-1.06.02-.68.61-.88,1.17-1.02,5.73-1.42,9.5-4.77,10.69-10.7.11-.56.32-1.12,1.04-1.12.56,0,.85.43.94.89,1.2,6.17,5.09,9.64,11.07,11.02.46.11.87.37.91,1.01Z" style="fill: #fee900;"/>
    <path d="m219.65,25.51c-.18,1.11-1.17,1.36-2.13,1.57-8.66,1.84-13.82,7.13-15.66,15.73-.21.97-.49,2.07-1.79,1.93-.98-.1-1.18-1.06-1.37-1.9-1.93-8.74-7.19-14.1-16.05-15.87-.82-.16-1.71-.55-1.67-1.59.04-1.02.92-1.32,1.75-1.52,8.57-2.12,14.22-7.14,16-16.03.17-.84.48-1.68,1.55-1.68.84,0,1.28.64,1.41,1.33,1.8,9.24,7.62,14.43,16.57,16.5.7.16,1.3.55,1.36,1.51Z" style="fill: #fee900;"/>
    <path d="m247.49,254.46c-.09.52-.55.65-1.01.74-4.09.87-6.54,3.37-7.4,7.44-.1.46-.23.98-.84.91-.46-.05-.56-.5-.65-.9-.91-4.13-3.4-6.67-7.59-7.5-.39-.08-.81-.26-.79-.75.02-.48.43-.62.83-.72,4.05-1,6.73-3.38,7.57-7.58.08-.4.23-.79.74-.79.4,0,.6.3.67.63.85,4.37,3.6,6.82,7.84,7.8.33.08.61.26.64.72Z" style="fill: #fee900;"/>
  </g>
</svg>