<?xml version="1.0" encoding="UTF-8"?>
<svg id="Layer_2" data-name="Layer 2" xmlns="http://www.w3.org/2000/svg" viewBox="0 0 157.18 149.89">
  <g id="Layer_1-2" data-name="Layer 1">
    <g>
      <path d="m157.18,114.83c-1.19,2.37-2.66,4.45-5.48,5.01-.83.17-1.69.2-2.59.3-.74,1.76-1.51,3.58-2.16,5.14.79,1.53,1.66,2.9,2.25,4.39.8,2.01.42,4.04-.95,5.62-1.79,2.06-3.68,4.12-5.85,5.74-2.7,2.02-6.24,1.56-8.64-.71-.73-.69-1.32-.71-2.14-.33-1.34.62-2.73,1.16-4.16,1.77-.09,2.24-.33,4.66-2.34,6.14-1.29.95-2.97,1.59-4.57,1.85-1.94.31-3.98,0-5.97.09-3.7.18-6.72-3.47-6.79-6.83-.02-.85-.08-1.5-1.12-1.56-.23-.01-.45-.19-.66-.31-2.11-1.17-3.91-1.8-6.28.13-2.4,1.95-5.98,1.12-8.21-1.1-1.55-1.55-3.21-3.02-4.58-4.73-2.17-2.7-1.59-6.98.76-9.01.27-.23.56-.44.76-.59-.84-2.03-1.59-3.86-2.39-5.79-6.81,0-13.71,0-20.61,0-1.69,0-3.38,0-5.06,0-1.91-.01-3.6-1.5-3.56-3.11.04-1.7,1.55-3.07,3.51-3.08,5.52-.03,11.05-.01,16.57-.01.3,0,.6,0,1.09,0,0-2.16.04-4.24-.01-6.31-.08-2.82,2.22-6.52,5.87-6.83.74-.06,1.47-.27,2.28-.42.7-1.67,1.43-3.45,2-4.81-.89-1.78-1.85-3.29-2.41-4.94-.83-2.47.33-4.55,1.92-6.35,1.22-1.38,2.59-2.62,3.89-3.92,2.41-2.4,7.48-2.25,9.77.03.28.28.59.55.79.73,1.62-.62,3.11-1.27,4.64-1.76.82-.26,1.09-.64,1.05-1.49-.15-3.06,1.43-5.09,4.03-6.42.55-.28,1.25-.38,1.88-.39,2.15-.05,4.31.15,6.44-.05,3.73-.35,7.43,3.24,6.96,6.95-.04.3,0,.6,0,.82,1.74.72,3.36,1.44,5.02,2.06.38.14,1.08.17,1.27-.06,1.65-1.91,3.78-2.51,6.26-2.36v-31.05H6.22c0,.52,0,1.01,0,1.51,0,18.11,0,36.22,0,54.33,0,4.37,1.56,7.92,5.53,10.07.87.47,2,.63,3.02.64,5.83.06,11.66.02,17.49.04,2.22,0,3.38,1.13,3.36,3.17-.01,1.99-1.17,3.02-3.47,3.02-5.99,0-11.97.01-17.96,0-4.45-.01-7.85-2.14-10.49-5.51C1.07,111.15,0,107.25,0,102.92.07,73.51,0,44.09.12,14.68c.02-3.7,1.71-7.01,4.2-9.87C7.42,1.25,11.31,0,15.93,0,54.19.06,92.46.08,130.72,0c7.76-.02,13.6,5.94,14.78,12.99.43,2.58.53,5.24.54,7.86.04,19.8.03,39.59,0,59.39,0,1.52.26,2.69,1.36,3.95,3.19,3.68,2.89,7.09-.56,10.77.68,1.65,1.33,3.3,2.06,4.93.15.34.57.8.85.79,3.87-.19,6.01,2.01,7.43,5.26v8.9ZM6.2,40.82h133.53c0-.56,0-1.06,0-1.56,0-6.8.02-13.6-.02-20.4,0-1.45-.16-2.92-.34-4.36-.57-4.45-3.89-8.33-9.47-8.32-38.4.07-76.8.04-115.2.04-.39,0-.79.05-1.18.12-4.76.84-7.18,5.71-7.26,9.31-.19,8.32-.06,16.66-.06,25.16Zm85.36,90.42c1.78,1.8,3.26,3.29,4.89,4.94.82-.74,1.66-1.44,2.44-2.2,1.67-1.62,3.18-1.76,5.26-.73,2.2,1.09,4.44,2.18,6.77,2.92,3,.95,3.09,1.83,3.01,4.01-.13,3.74-.23,3.53,3.4,3.51,3.61-.02,3.61,0,3.63-3.58.01-2.19,1.12-3.47,3.11-4.12,2.37-.78,4.71-1.71,6.97-2.77,1.99-.94,3.6-.85,5.15.69.58.58,1.11,1.21,1.76,1.71.27.21.95.34,1.13.17,1.52-1.4,2.97-2.89,4.49-4.4-.94-.91-1.73-1.63-2.47-2.41-1.6-1.69-1.69-2.95-.87-4.73,1.16-2.5,2.18-5.07,3.14-7.65.65-1.77,1.72-2.67,3.64-2.68.92,0,1.85.08,2.76-.04.36-.05.91-.54.93-.85.08-2.02.04-4.05.04-6.17-1.24,0-2.31-.03-3.37,0-2.37.07-3.26-1-4-3.07-.9-2.52-1.86-5.02-3.02-7.43-.87-1.8-.9-2.91.48-4.29q2.86-2.86-.04-5.76-2.17-2.17-4.28-.05c-.25.25-.5.51-.76.76-1.33,1.31-2.39,1.41-4.08.65-2.5-1.13-5.01-2.3-7.61-3.18-2.18-.73-3.08-1.61-3.09-3.91q0-3.49-3.58-3.49t-3.48,3.45c0,2.35-.66,3.14-2.89,3.93-2.37.84-4.77,1.68-7.02,2.8-2.6,1.3-3.23,1.34-5.26-.69-2.44-2.44-2.1-2.54-4.55-.07q-2.57,2.59-.08,5.34c1.23,1.37,1.61,3,.84,4.3-1.59,2.67-2.73,5.49-3.51,8.5-.19.73-1.06,1.62-1.79,1.81-1.38.37-2.88.34-4.33.38-.83.02-1.23.26-1.2,1.15.04,1.48.02,2.97,0,4.45-.01,1.01.44,1.5,1.46,1.49.97-.01,1.94.02,2.92,0,1.6-.04,2.46.85,3.01,2.24,1.13,2.81,2.24,5.63,3.47,8.39.75,1.69.72,2.5-.55,3.78-.95.96-1.9,1.93-2.87,2.92Z" style="fill: #010101;"/>
      <path d="m69.13,80.44c-2.28-2.52-4.55-4.97-6.75-7.48-1.72-1.96-2.04-2.83-1.11-4.51.92-1.68,3.24-2.22,4.59-.84,2.58,2.65,5.01,5.44,7.5,8.18.37.41.69.86,1.08,1.26,1.99,2.01,2,4.62.14,6.69-2.7,3-5.35,6.06-7.99,9.12-1.07,1.24-3.48,1.55-4.65.54-1.43-1.23-1.51-3.01-.18-4.52,2.43-2.78,4.86-5.56,7.38-8.43Z" style="fill: #040303;"/>
      <path d="m29.46,93.95c-2.05.27-2.76-1.45-3.78-2.5-2.28-2.36-4.28-5-6.56-7.36-2.28-2.37-1.95-5.11-.02-7.22,2.46-2.69,4.87-5.42,7.25-8.17,1.51-1.74,3.24-2.29,4.76-1.41,1.78,1.03,2,3.49.52,5.08-2.07,2.23-4.09,4.5-6.15,6.73-.93,1-1.01,1.75.08,2.85,2.26,2.3,4.29,4.83,6.43,7.25.92,1.03.8,2.18.26,3.23-.56,1.09-1.54,1.72-2.79,1.52Z" style="fill: #040404;"/>
      <path d="m52.82,68.31c-.56,2.44-1.21,5.39-1.92,8.33-1.39,5.76-2.82,11.52-4.21,17.28-.46,1.92-2.15,3.08-3.97,2.47-1.69-.57-2.46-2.34-2.07-3.97,1.94-7.98,3.82-15.98,5.72-23.97.13-.53.2-1.07.35-1.59.46-1.54,1.99-2.32,4.01-2.05,1.37.18,2.09,1.21,2.08,3.51Z" style="fill: #030202;"/>
      <path d="m49.45,116.98c.32,1.78-1.48,2.9-3.1,3.09-1.6.19-3.14-1.76-3.06-3.2.09-1.7,1.21-2.93,2.91-2.96,2.08-.04,3.21,1.03,3.25,3.07Z" style="fill: #050504;"/>
      <path d="m105.33,34.09c-4.6,0-9.21.04-13.81-.01-5.33-.06-9.65-4.76-9.89-9.95-.22-4.72,3.02-9.2,7.37-10.42,1.01-.28,2.09-.44,3.14-.44,9.05-.03,18.11-.06,27.16,0,4.9.03,8.64,3,10.04,7.24,1.93,5.85-1.74,12.49-7.99,13.24-3.21.38-6.48.27-9.73.34-2.1.04-4.19,0-6.29,0h0Zm.43-14.5s0,.02,0,.03c-4.7,0-9.4-.05-14.1.02-2.13.03-3.86,1.96-3.86,4.03,0,2.13,1.82,4.18,3.88,4.19,9.19.03,18.39.06,27.58-.07,1.16-.02,2.54-.73,3.41-1.56,1.16-1.1,1.19-2.72.5-4.21-.74-1.58-1.98-2.44-3.77-2.44-4.55,0-9.09,0-13.64,0Z" style="fill: #020201;"/>
      <path d="m28.56,13.54c6.11-.54,10.19,4.97,10.49,9.31.47,6.91-5.18,11.11-10.26,11.27-6.04.19-10.62-5.14-10.59-10.35.02-5.55,4.52-10.78,10.36-10.24Zm-.06,14.12c2.88.23,4.39-1.98,4.36-4.02-.04-2.14-1.61-4.04-4.17-3.97-2.41.07-4.1,1.65-4.1,4,0,2.33,1.63,3.99,3.92,3.99Z" style="fill: #030303;"/>
      <path d="m55.26,13.54c6.03-.55,10.74,4.52,10.77,10.16.03,5.49-4.77,10.58-10.9,10.43-5.19-.12-10.09-4.93-10.01-10.73.06-4.44,4.57-10.53,10.14-9.85Zm.17,14.12c2.95,0,4.18-1.34,4.17-4.54,0-1.87-1.91-3.32-4.14-3.48-2.55-.18-4.09,2.42-4.14,4.2-.07,2.14,1.81,3.81,4.11,3.81Z" style="fill: #030303;"/>
      <path d="m136.31,110.32c.55,10.25-8.71,19.45-19.79,18.93-9.41-.45-18-8.33-17.92-19.24.08-9.57,8.06-19.3,20.31-18.54,8.86.55,17.98,8.5,17.4,18.85Zm-18.99,12.49c6.81.65,13.45-5.89,12.9-13.35-.45-6.2-5.62-11.73-12.69-11.82-7.11-.08-12.47,5.76-12.63,12.65-.15,6.36,6.07,13.2,12.41,12.51Z" style="fill: #030303;"/>
    </g>
  </g>
</svg>