<?xml version="1.0" encoding="UTF-8"?>
<svg id="Layer_2" data-name="Layer 2" xmlns="http://www.w3.org/2000/svg" viewBox="0 0 152.03 149.89">
  <g id="Layer_4" data-name="Layer 4">
    <g>
      <path d="m152.03,109.07c-.21.51-.43,1.01-.62,1.53-1.92,5.17-5.47,8.55-10.98,9.44-4.2.68-8.46,1.01-12.69,1.53-1.67.2-3.34.49-5.09.75-.01.13-.04.31-.05.5-.1,8.05-.21,16.1-.3,24.15-.02,1.82-.94,2.85-2.57,2.82-1.38-.02-2.19-1.07-2.19-2.86,0-5.5-.04-11,.01-16.5.03-3.5.17-6.99.29-10.48.05-1.56.99-2.27,3.44-2.55,4.73-.53,9.47-.92,14.19-1.54,2.26-.29,4.63-.61,6.68-1.53,3.14-1.39,4.88-4.04,4.81-7.63-.08-3.89-.16-7.78-.3-11.67-.16-4.27-.39-8.53-.58-12.79-.2-4.46-.4-8.92-.6-13.39-.19-4.21-.29-8.44-.63-12.64-.17-2.18-.29-4.34-1.58-6.4-2.69-4.3-10.92-5.13-14.15.13-4.08,6.65-8.18,13.28-12.17,19.98-1.34,2.25-3.4,2.84-5.7,3.16-5.17.7-10.35,1.38-15.52,2.12-2.28.32-4.55.74-6.82,1.15-2.49.45-3.78,2.27-4.59,4.41-.85,2.22-.08,4.23,1.29,6.05,1.89,2.51,4.58,2.6,7.31,2.3,2.29-.26,4.55-.79,6.84-1.12,3.12-.45,6.25-.77,9.37-1.23,3.02-.44,6.02-1.26,9.05-1.39,4.2-.19,6.53-2.45,8.38-5.9,1.79-3.34,3.89-6.53,5.89-9.76.85-1.38,2.41-1.79,3.63-1.04,1.25.76,1.41,2.19.47,3.7-2.28,3.69-4.58,7.38-6.78,11.12-.44.75-.66,1.73-.68,2.61-.08,3.07-.08,6.14-.01,9.21.04,1.89-1,3.21-3.27,3.4-3.86.33-7.69.96-11.54,1.43-2.02.24-4.06.53-6.09.57-4.93.09-8.87,4.55-8.82,8.98.12,12.28.03,24.57.06,36.85,0,1.18-.29,2.14-1.24,2.83-1.32.96-3.19.22-3.54-1.4-.1-.48-.14-.98-.14-1.47,0-12.28.08-24.57,0-36.85-.05-6.79,5.59-13.24,12.88-13.7,5.22-.33,10.41-1.13,15.61-1.74.67-.08,1.16-.31,1.11-1.18-.07-1.27-.02-2.54-.02-3.56-3.58.51-7.06,1-10.54,1.51-3.78.55-7.55,1.13-11.33,1.66-3.16.45-6.35.74-9.49,1.32-3.03.56-5.7-.06-8.22-1.71-.18-.12-.47-.1-.71-.11-2.17,0-4.34,0-6.68,0v1.65c0,17.58.01,35.17-.04,52.75,0,.88-.4,1.96-1,2.59-1.29,1.37-3.41.58-3.74-1.29-.11-.63-.12-1.28-.12-1.92,0-17.39,0-34.77,0-52.16,0-.54,0-1.08,0-1.85-.61,0-1.12,0-1.64,0-6.24,0-12.48-.04-18.72,0-1.26,0-2.05-.7-2.23-1.69-.14-.78.19-1.86.7-2.48.39-.47,1.39-.61,2.12-.62,8.67-.04,17.34-.03,26.01-.03h1.75c-1.68-3.8-1.18-7.32.89-10.62,2.16-3.44,5.45-4.98,9.42-5.43,3.36-.38,6.69-.98,10.03-1.46,2.92-.42,5.83-.96,8.76-1.15,2.29-.15,3.59-1.07,4.76-3.1,3.53-6.13,7.32-12.11,11.09-18.09,2.59-4.1,6.51-6.1,11.26-5.86,6.13.3,10.92,3.34,12.84,10.17.26.93.36,1.92.39,2.88.13,3.39.18,6.79.31,10.19.17,4.51.38,9.03.59,13.54.19,4.07.38,8.14.6,12.21.18,3.27.4,6.55.62,9.82,0,.1.17.19.26.28v8.62Z" style="fill: #231f20;"/>
      <path d="m27.5,89.26c0,1.33-.05,2.62.03,3.9.03.36.43.97.72,1.01,2.84.37,5.71.56,8.55.96,4.01.56,8.23.64,11.96,2.01,5.86,2.15,8.54,7.1,8.59,13.26.1,12.14.05,24.27-.02,36.41,0,.8-.51,1.75-1.07,2.36-.66.71-1.79,1.07-2.59.29-.59-.57-1.12-1.53-1.14-2.33-.1-5.45-.05-10.9-.05-16.35,0-6.59-.04-13.18.01-19.76.04-5.25-2.6-9.14-7.93-10.14-2.1-.39-4.25-.47-6.38-.72-2.26-.27-4.51-.59-6.77-.86-1.93-.23-3.86-.46-5.8-.62-1.92-.16-2.79-1.01-2.81-2.98-.02-2.53-.16-5.06.04-7.58.18-2.28-.48-4.17-1.68-6.02-2.04-3.15-3.99-6.37-5.98-9.55-1-1.6-.83-3.18.43-3.91,1.36-.78,2.83-.23,3.79,1.33,2.6,4.22,5.17,8.46,7.88,12.61,1.49,2.28,4.44,3.16,7.09,2.19,4.43-1.63,8.82-3.36,13.2-5.1,5.63-2.24,11.28-4.43,16.83-6.86,3.98-1.74,4.98-6.28,2.41-9.84-1.64-2.27-4.94-3.34-7.78-2.21-7.19,2.86-14.36,5.77-21.52,8.69-1.64.67-2.65.61-3.8-1.31-4.06-6.71-8.11-13.42-12.24-20.09-1.16-1.88-2.84-2.92-5.21-3.21-4.17-.51-6.59,2.13-7.34,5.12-.33,1.31-.37,2.69-.46,4.05-.23,3.42-.38,6.85-.61,10.27-.27,3.9-.59,7.79-.88,11.69-.29,3.84-.6,7.69-.89,11.53-.3,3.99-.59,7.99-.9,11.98-.17,2.14-.45,4.27-.58,6.4-.3,5.17,3.83,9.46,9.18,9.81,3.47.23,6.9.95,10.36,1.42,2.45.33,4.91.65,7.37.9,1.96.19,2.79,1.04,2.79,3.09,0,7.63,0,15.26,0,22.88,0,.99.01,1.98,0,2.97-.03,1.58-1.14,2.86-2.51,2.87-1.36.01-2.33-1.06-2.33-2.78-.02-7.58-.01-15.16-.01-22.74,0-.54,0-1.08,0-1.71-2.64-.34-5.23-.59-7.8-1.02-4.46-.76-9.1-.54-13.36-2.32-4.3-1.79-7.14-5.02-8.06-9.54-.47-2.33-.14-4.83-.09-7.26.03-1.47.21-2.93.3-4.39.2-3.42.37-6.84.6-10.26.26-3.85.59-7.7.88-11.55.3-3.99.59-7.98.89-11.98.29-3.8.53-7.6.91-11.38.29-2.85.48-5.71,2.31-8.21,2.58-3.54,7.14-5.14,10.87-4.69,5.5.67,8.15,4.34,10.62,8.59,2.9,4.99,6.05,9.84,9.01,14.8.5.84.88.89,1.72.56,6.8-2.71,13.51-5.72,20.47-7.93,6.03-1.91,12.32,1.52,13.92,7.9,1.58,6.3-1.57,11.76-7.71,14.06-8.77,3.29-17.41,6.95-26.1,10.46-2.39.96-4.75,2.04-7.42,1.65-1.27-.19-2.52-.5-3.92-.78Z" style="fill: #231f20;"/>
      <path d="m74.4,0c5.5,0,10.99,0,16.49,0,3,0,5.43,1.22,6.84,3.88.61,1.15.9,2.6.92,3.92.09,6.09.05,12.18.04,18.27,0,4.66-3.56,7.83-7.83,7.78-7.33-.09-14.66.16-21.98-.11-3-.11-4.98,1.09-6.94,2.96-1.59,1.52-3.24,3-4.97,4.36-1.2.94-2.7,1.23-4.09.42-1.28-.74-2.19-1.81-2.19-3.47.02-10.55,0-21.09.03-31.64C50.71,3.61,53.72-.03,57.91,0c5.5.04,10.99,0,16.49,0Zm-18.88,35.93c1.43-1.28,2.6-2.25,3.68-3.32,2.56-2.56,5.46-3.89,9.24-3.78,7.42.23,14.86.07,22.28.06,2.27,0,3.06-.83,3.07-3.11,0-5.84,0-11.69,0-17.53,0-2.61-.73-3.38-3.3-3.38-10.55,0-21.1.03-31.65-.03-2.65-.01-3.37,1.02-3.35,3.46.06,8.67.02,17.33.02,26,0,.43,0,.85,0,1.62Z" style="fill: #231f20;"/>
      <path d="m20.57.29c9.75-.55,16.52,7.67,17.05,15.02.83,11.49-8.08,18.13-15.82,18.61-10.64.65-18.2-8.19-18.06-17.23C3.86,8.2,10.99-.33,20.57.29Zm.11,4.76c-7.13-.4-12.17,5.82-12.12,11.93.05,6.45,4.81,11.79,11.46,12.12,7.14.36,12.7-5.45,12.85-11.83.16-6.74-5.72-12.68-12.19-12.22Z" style="fill: #231f20;"/>
      <path d="m130.85.29c9.5-.57,16.55,7.57,17.06,15.47.69,10.6-8,17.7-15.88,18.17-10.55.64-18.21-8.21-18.04-17.23.16-8.56,7.3-17.05,16.86-16.42Zm-.05,28.83c6.67-.01,12.16-5.38,12.34-11.89.16-5.84-4.77-12.9-13.4-12.22-5.99.48-10.8,5.38-10.9,11.91-.09,6.41,4.99,12.11,11.96,12.2Z" style="fill: #231f20;"/>
      <path d="m74.6,14.95c-3.42,0-6.84.06-10.25-.05-.81-.03-1.92-.42-2.35-1.03-1.29-1.81-.07-3.76,2.25-3.77,6.29-.02,12.58,0,18.87,0,.74,0,1.49-.02,2.23,0,1.62.04,2.81,1.13,2.78,2.51-.03,1.37-1.03,2.3-2.68,2.32-3.61.04-7.23.01-10.84.01Z" style="fill: #231f20;"/>
      <path d="m69.21,23.75c-1.68,0-3.36.02-5.04,0-1.42-.02-2.72-1.1-2.79-2.27-.09-1.37.94-2.57,2.55-2.61,3.51-.1,7.02-.11,10.53-.02,1.84.05,2.45.89,2.38,2.75-.05,1.36-.94,2.13-2.58,2.15-1.68.02-3.36,0-5.04,0Z" style="fill: #231f20;"/>
    </g>
  </g>
</svg>