<?xml version="1.0" encoding="UTF-8"?>
<svg id="Layer_2" data-name="Layer 2" xmlns="http://www.w3.org/2000/svg" viewBox="0 0 150.07 150.08">
  <g id="Layer_3" data-name="Layer 3">
    <g>
      <path d="m150.07,44c-3.52,3.92-7.36,7.54-11.11,11.23-.96.94-2.2.84-3.17-.1-3.46-3.37-6.9-6.77-10.3-10.2-1.04-1.05-.94-2.41.1-3.52.43-.46.89-.9,1.36-1.33.47-.43.96-.83,1.56-1.34-3.37-2.55-6.75-4.63-10.38-6.27-21.74-9.8-42.76-8.38-63.06,4.13-.94.58-1.16,1.02-.73,2.16,1.8,4.82,1,9.28-2.67,12.94-3.67,3.66-8.12,4.45-12.95,2.63-1.11-.42-1.57-.25-2.18.71-5.84,9.06-9.32,18.92-10.21,29.68-1.28,15.57,2.6,29.75,11.44,42.6.6.88.99,1.15,1.74.18.54-.69,1.21-1.28,1.85-1.87,1.16-1.08,2.53-1.13,3.65-.02,3.36,3.34,6.69,6.71,10,10.09,1.01,1.03,1.12,2.35.2,3.28-3.69,3.75-7.32,7.57-11.23,11.11h-1.76c-3.59-3.57-7.2-7.13-10.77-10.72-1.3-1.31-1.27-2.49.02-3.83.91-.95,1.8-1.94,2.81-2.78.85-.71.71-1.21.12-2.02-5.39-7.43-9.15-15.61-11.22-24.56-3.31-14.3-2.21-28.26,3.24-41.89.1-.25.36-.49.2-.84-.4-.08-.55.29-.76.5-3.78,3.75-7.54,7.52-11.33,11.25-.6.59-.72,1.06-.47,1.9,1.29,4.28-1.25,8.34-5.68,9.21-3.82.75-7.88-2.17-8.32-5.99-.52-4.48,2.57-8.19,6.97-8.35.43-.02.92-.02,1.3.15,1.75.82,2.78-.11,3.94-1.29,6.62-6.7,13.31-13.35,20-19.98.65-.65.79-1.08.33-1.95-2.56-4.81-1.73-10.37,2.03-14.16,3.81-3.84,9.38-4.69,14.27-2.1.79.42,1.22.36,1.84-.26,7.01-7.07,14.05-14.12,21.11-21.15.61-.61.68-1.1.43-1.9-1.01-3.25.35-6.64,3.23-8.33,2.76-1.62,6.36-1.18,8.66,1.05,2.36,2.29,2.86,5.88,1.23,8.74-1.67,2.91-4.98,4.25-8.3,3.32-.63-.18-1.1-.35-1.69.24-3.94,4-7.94,7.95-11.91,11.91-.09.09-.14.23-.28.46,2.4-.82,4.65-1.7,6.97-2.36,21.7-6.23,41.85-2.89,60.38,9.99,1.06.73,1.59.65,2.35-.24.76-.89,1.63-1.68,2.48-2.49,1.46-1.42,2.61-1.45,4.04-.02,3.55,3.54,7.08,7.11,10.61,10.66v1.76Zm-99.59-.73c.01-4.11-3.24-7.4-7.29-7.38-3.99.02-7.25,3.28-7.3,7.28-.04,4.06,3.24,7.34,7.34,7.33,4.06,0,7.24-3.18,7.25-7.23Zm-.44,94.15c-.13-.17-.22-.33-.34-.45-2-2-4.01-3.99-5.99-6.01-.56-.58-.83-.12-1.16.21-1.87,1.86-3.71,3.75-5.61,5.57-.59.56-.48.88.04,1.39,1.89,1.84,3.76,3.7,5.6,5.58.48.49.77.54,1.28.01,1.87-1.93,3.78-3.81,5.68-5.71.17-.17.31-.36.51-.59Zm94.25-94.23c-.15-.2-.25-.36-.38-.49-2-2.01-4.01-4-6-6.02-.49-.5-.76-.12-1.07.19-1.87,1.86-3.71,3.75-5.6,5.58-.53.52-.61.85-.03,1.4,1.86,1.79,3.69,3.63,5.49,5.49.57.59.92.64,1.51.02,1.79-1.87,3.65-3.67,5.47-5.5.2-.2.38-.42.6-.67ZM81.58,7.26c.01-1.41-1.1-2.55-2.46-2.52-1.32.03-2.36,1.11-2.37,2.46-.01,1.41,1.1,2.54,2.46,2.51,1.32-.03,2.36-1.11,2.38-2.46ZM9.7,79.2c.02-1.33-1.04-2.4-2.41-2.43-1.41-.03-2.32.84-2.33,2.23,0,1.35,1.04,2.45,2.36,2.49,1.26.04,2.35-1.02,2.37-2.29Z"/>
      <path d="m110.21,150.08c-.75-.82-1.3-1.77-1.79-2.77-2.06-4.19-4.2-8.35-6.24-12.56-.46-.95-1.07-1.52-2.04-1.89-7.74-2.94-15.45-5.94-23.2-8.86-1.35-.51-2.14-1.32-2.67-2.64-7.81-19.63-15.65-39.26-23.54-58.86-.69-1.7-.47-2.91.86-4.16,2.38-2.24,4.67-4.58,6.95-6.93,1.09-1.13,2.19-1.33,3.67-.74,19.74,7.93,39.5,15.82,59.27,23.68,1.3.52,2.03,1.33,2.51,2.61,2.95,7.78,5.97,15.54,8.93,23.33.34.88.83,1.42,1.69,1.84,4.25,2.07,8.45,4.23,12.68,6.33,1,.49,1.95,1.03,2.77,1.79v2.05c-12.6,12.6-25.2,25.2-37.8,37.8h-2.05Zm-12.36-65.7c7.44,0,13.46,5.44,14.07,12.51.51,5.94-2.79,11.53-8.24,13.92-5.52,2.43-11.77,1.05-15.88-3.5-3.88-4.29-4.59-10.82-1.64-15.93.55-.94.45-1.43-.29-2.17-9.42-9.37-18.8-18.77-28.21-28.14-.34-.33-.55-1.21-1.34-.71-.72.47-.94,1.02-.57,1.95,7.54,18.75,15.04,37.52,22.54,56.3.27.68.67,1.08,1.37,1.35,7.28,2.77,14.55,5.57,21.81,8.4.83.32,1.36.25,2.02-.41,8.12-8.18,16.27-16.33,24.44-24.45.67-.66.72-1.2.4-2.03-2.79-7.17-5.56-14.35-8.29-21.54-.34-.9-.86-1.39-1.75-1.74-10.69-4.24-21.36-8.53-32.03-12.8-8.01-3.21-16.02-6.39-24.01-9.64-.87-.35-1.35-.11-1.86.51-.65.8.24,1.03.57,1.35,9.41,9.45,18.84,18.86,28.25,28.31.67.68,1.12.92,2.05.32,2.05-1.31,4.36-1.9,6.57-1.85Zm45.64,27.75c-.11-.41-.43-.46-.68-.59-3.35-1.69-6.71-3.35-10.05-5.06-.6-.31-.94-.16-1.37.28-8.21,8.23-16.42,16.45-24.65,24.65-.43.43-.61.75-.29,1.36,1.71,3.34,3.4,6.69,5.04,10.07.4.82.69.69,1.23.15,10.07-10.09,20.15-20.17,30.23-30.26.2-.2.38-.42.54-.61Zm-54.41-14.07c-.02,5.06,4.03,9.18,9.03,9.19,4.91.01,9.03-4.06,9.11-9.02.08-4.92-4.01-9.11-8.94-9.14-5.13-.04-9.18,3.91-9.21,8.97Z"/>
    </g>
  </g>
</svg>