<?xml version="1.0" encoding="UTF-8"?>
<svg id="Layer_2" data-name="Layer 2" xmlns="http://www.w3.org/2000/svg" viewBox="0 0 147.08 149.89">
  <g id="Layer_6" data-name="Layer 6">
    <g>
      <path d="m49.15,118.93c-13.4,0-26.27.01-39.14,0-5.07,0-10-4.94-10-10C0,75.9-.02,42.87.04,9.85.05,5.1,4.09.53,9.27.1,10.22.03,11.18,0,12.13,0,52.95,0,93.77,0,134.6,0c2.38,0,4.66.27,6.8,1.56,4,2.43,5.63,6.12,5.65,10.54.06,20.36.03,40.72.03,61.08,0,11.31.03,22.62-.02,33.93-.01,2.79-.57,5.42-2.44,7.71-2.17,2.66-4.94,4.07-8.27,4.09-13.27.08-26.54.03-39.82.03-.55,0-1.09,0-1.72,0-1.02,3.81.16,7.17,1.99,10.28,1.29,2.19,2.97,4.16,4.59,6.15.37.45,1.17.75,1.78.76,3.01.08,6.03-.03,9.05.05,2.99.08,5.86,1.53,6.71,4.69,1.26,4.73-1.52,8.54-5.99,8.9-.5.04-1,.04-1.51.04-25.39,0-50.78-.06-76.16.06-4.28.02-7.47-3.3-7.5-6.65-.02-3.63,2.4-6.97,6.9-7.05,3.02-.05,6.03.02,9.05-.04.49,0,1.11-.31,1.42-.68,2.34-2.82,3.94-5.98,4.01-9.73.04-2.23,0-4.46,0-6.8Zm40.39.03c-.09-.08-.18-.16-.26-.24-11.87,0-23.73,0-35.6,0-.08.08-.17.16-.25.24-.02.35-.1.71-.04,1.05.72,3.68.24,7.27-.93,10.77-.57,1.71-1.36,3.35-2.08,5.08h45.04c-3.96-5.04-6.61-10.4-5.88-16.91ZM4.5,92.35h137.59c0-.52,0-.96,0-1.41,0-26.44,0-52.88,0-79.32,0-4.4-2.82-6.91-6.89-6.91-41.32,0-82.64.02-123.96-.02-4.03,0-6.81,2.6-6.79,6.77.1,26.49.05,52.98.05,79.47,0,.44,0,.89,0,1.41Zm.02,4.62c0,3.96,0,7.77,0,11.59,0,.28.11.57.19.84.98,3.2,2.94,4.51,6.74,4.52,41.23,0,82.46,0,123.69,0,.6,0,1.22.04,1.81-.07,1.6-.29,3.14-.89,3.88-2.4.62-1.28,1.14-2.73,1.2-4.12.17-3.44.06-6.89.06-10.34H4.51Zm68.63,48.32c12.52,0,25.03,0,37.55,0,.5,0,1.01.02,1.51-.02,1.18-.1,2.09-1.08,2.13-2.24.04-1.49-.94-2.35-2.75-2.35-25.48,0-50.96,0-76.45,0-.3,0-.61-.03-.9.02-1.18.19-2.09.94-2.17,2.02-.06.72.51,1.73,1.12,2.2.53.42,1.5.35,2.28.36,12.57.02,25.13.01,37.7.01Z" style="fill: #231f20;"/>
      <path d="m105.16,26.67c-.7-.76-1.08-1.5-1.69-1.77-2.37-1.1-3.99-4.29-3.6-6.89.43-2.86,1.74-5.02,4.83-6.03,3.51-1.14,7.25.74,8.75,4.26,1.39,3.27-.15,7.28-3.22,8.61-.87.37-1.17.95-1.06,1.87.08.69.02,1.41.02,2.11,0,2.12-.76,2.86-3.03,2.86-7.64,0-15.28.04-22.92-.03-1.33-.01-2.15.27-2.58,1.6-.26.83-.69,1.62-1.14,2.38-.69,1.16-.21,1.78.87,2.18,1.59.6,3.19,1.19,4.8,1.75,1.98.69,2.28,1.05,2.28,3.03,0,.85,0,1.71,0,2.79h4.01c2.61,0,5.23-.03,7.84.02.73.01,1.09-.19,1.44-.89,1.39-2.76,3.7-3.96,6.79-3.68,2.74.24,4.75,1.6,5.82,4.09,1.91,4.45-.98,9.66-6.27,9.81-3.01.08-5.07-1.19-6.41-3.83-.16-.32-.61-.7-.92-.7-4.06-.05-8.12-.03-12.3-.03,0,1.16-.07,2.21.02,3.25.1,1.19-.43,1.89-1.46,2.28-1.82.69-3.65,1.36-5.48,2.02-1.4.51-1.39.91-.96,2.33.92,3.05,2.77,3.83,5.89,3.69,6.72-.29,13.47-.09,20.21-.09,2.73,0,3.2.48,3.2,3.2,0,.2,0,.4,0,.6-.08,1.74-.11,3.11,2.06,4.08,2.52,1.13,3.43,5.1,2.39,8-.88,2.45-3.65,4.38-6.36,4.48-4.3.16-6.82-2.83-7.43-6.61-.33-2.06,1.42-5.43,3.39-6.29,1.32-.57,1.76-1.31,1.27-2.75h-7.02c-4.98,0-9.95-.04-14.93.04-.79.01-1.75.43-2.34.97-2.21,2.05-4.32,4.21-6.42,6.37-1.05,1.08-2.16,1.23-3.46.58-1.6-.8-3.24-1.54-4.83-2.35-1.17-.59-1.78-.29-2.16.98-.51,1.69-1.22,3.31-1.78,4.98-.45,1.36-1.33,2.01-2.76,2-3.47-.02-6.94,0-10.41,0-2.37,0-2.69-.23-3.44-2.42-.54-1.57-1.03-3.16-1.55-4.73-.39-1.16-1.13-1.36-2.2-.83-1.56.78-3.17,1.48-4.71,2.3-1.42.75-2.53.61-3.68-.61-2.38-2.52-4.86-4.95-7.35-7.37-1.03-1-1.28-1.9-.51-3.23.96-1.65,1.67-3.44,2.48-5.17.42-.9.6-1.58-.75-1.96-1.9-.54-3.73-1.35-5.6-2.03-.96-.35-1.62-.89-1.61-2.03.03-3.87.06-7.74.03-11.61-.01-1.5.5-2.37,2.05-2.76,1.73-.43,3.41-1.12,5.09-1.74.97-.36,1.41-.92.82-2.04-.96-1.81-1.73-3.73-2.69-5.54-.48-.9-.36-1.58.29-2.23,2.9-2.92,5.78-5.87,8.77-8.71.41-.39,1.44-.46,2.03-.25,1.73.62,3.39,1.45,5.07,2.2,1.62.73,2.22.47,2.83-1.22.58-1.61,1.2-3.21,1.78-4.82.43-1.2,1.18-1.82,2.53-1.8,3.62.05,7.24.08,10.86,0,1.65-.04,2.42.76,2.89,2.17.59,1.76,1.22,3.51,1.85,5.25.38,1.04.98,1.34,2.06.77,1.62-.86,3.3-1.61,4.96-2.38,1.4-.66,2.65-.51,3.78.65,2.11,2.16,4.24,4.29,6.4,6.39.39.37,1,.72,1.51.72,7.39.04,14.78.03,22.17.02.09,0,.19-.05.91-.26ZM29.27,65.8c1.12,1.1,2.31,2.24,3.48,3.41,2.61,2.6,2.67,2.73,5.85.94,2.3-1.3,4.45-1.63,6.68-.15.75.5,1.51,1.18,1.9,1.96.69,1.39,1.21,2.89,1.61,4.39.24.9.66,1.07,1.46,1.06,2.01-.04,4.02-.06,6.03,0,1.02.03,1.43-.28,1.68-1.33.37-1.55.96-3.07,1.66-4.51.34-.7,1.05-1.31,1.74-1.72,2.23-1.34,4.41-1.05,6.55.37.8.53,1.72.9,2.64,1.18.43.13,1.14.05,1.45-.23,1.89-1.73,3.69-3.54,5.51-5.3-.94-1.9-1.79-3.61-2.64-5.32-1.08-2.18.41-5.97,2.67-6.76,1.29-.45,2.6-.82,3.89-1.23,1.11-.35,1.85-.88,1.65-2.28-.16-1.13-.03-2.31-.03-3.46,0-3.21,0-3.22-3.09-4.21-2.4-.76-4.83-1.5-5.06-4.59-.08-1.07-.24-2.25.1-3.21.62-1.74,1.58-3.35,2.42-5.04-.33-.36-.63-.69-.94-1.01-1.49-1.5-2.95-3.03-4.51-4.44-.31-.28-1.11-.29-1.55-.11-1.53.61-3.02,1.35-4.51,2.06-2.12,1-5.61-.33-6.41-2.5-.58-1.55-1.1-3.12-1.59-4.7-.22-.72-.57-1.02-1.37-.99-2.11.06-4.22.05-6.33,0-.84-.02-1.2.25-1.44,1.1-.42,1.5-1.07,2.93-1.56,4.42-.41,1.25-1.17,1.98-2.49,2.18-.51.08-.98.5-1.49.53-.93.06-1.94.15-2.79-.14-1.51-.52-2.91-1.35-4.4-1.95-.38-.15-1.07-.07-1.35.19-1.87,1.74-3.67,3.57-5.41,5.28.73,1.6,1.22,3.2,2.12,4.52,1.6,2.35.24,4.29-.59,6.31-.17.41-.81.7-1.29.9-1.58.63-3.17,1.29-4.8,1.74-.84.23-1.01.61-.99,1.35.03,1.51,0,3.02,0,4.52q0,2.87,2.81,3.88c.87.31,1.71.71,2.6.95,1.17.32,1.81,1.06,2.14,2.18.2.65.56,1.27.67,1.93.11.69.21,1.49-.04,2.1-.78,1.9-1.72,3.74-2.65,5.72ZM107.05,20.91c1.35,0,2.5-1.01,2.46-2.16-.04-1.06-1.28-2.28-2.37-2.33-1.14-.05-2.18,1.03-2.19,2.28-.01,1.47.68,2.2,2.1,2.21Zm.05,28.96c1.27,0,2.38-.97,2.41-2.08.03-1.16-1.12-2.14-2.48-2.14-1.42,0-2.08.72-2.07,2.24,0,1.38.67,1.99,2.15,1.98Zm-.03,25.04c-1.45,0-2.12.63-2.12,2,0,1.52.66,2.22,2.1,2.22,1.3,0,2.4-.9,2.46-2.02.06-1.16-1.09-2.2-2.43-2.2Z" style="fill: #231f20;"/>
      <path d="m78.72,104.94c.58,3.1-3.23,6.59-6.56,6.56-3.53-.03-6.62-3.68-6.5-6.81.11-2.72,3.02-6.38,5.91-6.29,4.66.14,7.16,2.3,7.15,6.55Zm-6.53,1.34c1.27.19,1.94-.61,1.95-1.66,0-.96-.6-1.66-1.84-1.69-1.32-.03-1.72.68-1.71,1.71,0,.93.31,1.82,1.61,1.63Z" style="fill: #231f20;"/>
      <path d="m53.14,26.95c11.79-.72,20.83,9.67,21.4,19.34.83,14.08-10.26,23.18-21.41,23.12-11.44-.06-21.46-9.42-21.14-22.22.25-10.37,9.26-20.9,21.15-20.24Zm0,4.22c-9.31-.54-16.36,7.71-16.64,15.77-.36,10.29,7.69,17.51,16.1,17.67,9.26.18,18.45-6.83,17.39-18.88-.62-7.06-7.24-15.06-16.86-14.57Z" style="fill: #231f20;"/>
    </g>
  </g>
</svg>