<?xml version="1.0" encoding="UTF-8"?>
<svg id="Layer_2" data-name="Layer 2" xmlns="http://www.w3.org/2000/svg" viewBox="0 0 135.51 149.59">
  <g id="Layer_5" data-name="Layer 5">
    <g>
      <path d="m113.06,0c1.8.87,3.72,1.55,5.37,2.63,3.33,2.18,4.93,5.43,5.15,9.38.14,2.57-.3,5-1.78,7.4.58.06,1.03.17,1.48.15,6.38-.28,11.69,4.6,12,10.82.05.96.22,1.92.22,2.88.01,24.2.04,48.39-.01,72.59-.01,5.22-2.1,9.4-7.11,11.57-1.43.62-3.07,1.09-4.62,1.1-14.95.08-29.89.05-44.84.06-.28,0-.57,0-1.09,0,.6,2.71,1.15,5.27,1.74,7.83.42,1.83,1.02,3.64,1.32,5.49.17,1.05.67,1.09,1.47,1.1,2.43.02,4.88-.12,7.28.16,5.05.59,8.01,4.48,7.95,9.52,0,.29,0,.58,0,1.06,2.98,0,5.93-.02,8.88,0,2.14.02,3.19,1.13,3.12,3.21-.05,1.4-1.14,2.47-2.69,2.63-.24.02-.49,0-.73,0-25.66,0-51.31,0-76.97.02-1.36,0-2.43-.37-3.09-1.59-1.14-2.11.75-4.33,2.55-4.29,3.06.07,6.12.02,9.21.02.12-1.35.05-2.67.37-3.89,1.15-4.43,4.31-6.82,8.9-6.86,2.33-.02,4.67,0,7.09,0,1.14-4.77,2.28-9.52,3.43-14.35-.47-.02-.86-.06-1.24-.06-15.09,0-30.18.09-45.27-.04-5.17-.04-9.74-4.2-10.79-9.35-.23-1.11-.27-2.28-.27-3.42C.05,81.24.14,56.7,0,32.16c-.04-7.23,5.18-12.86,12.79-12.8,16.94.12,33.88.04,50.83.04,8.67,0,17.33-.01,26,.02,1,0,1.61-.23,2.21-1.16,2.83-4.39,5.68-8.77,8.72-13.02,1.9-2.65,4.49-4.49,7.86-4.97.1-.01.19-.17.28-.27,1.46,0,2.92,0,4.38,0Zm16.46,87.1v-1.2c0-17.09,0-34.18,0-51.27,0-1.22.03-2.44-.03-3.65-.12-2.5-1.65-4.79-4.09-5.2-2.64-.45-5.38-.3-8.08-.39-.15,0-.34.14-.45.26-2.21,2.65-4.43,5.29-6.61,7.97-3.32,4.08-6.59,8.21-9.93,12.28-2.89,3.52-5.86,6.97-8.74,10.5-.5.62-.98,1.49-.97,2.24.03,2.05.48,4.09.49,6.13.02,3.74-1.6,6.89-4.27,9.38-2.88,2.68-6.42,3.9-10.39,3.85-2.97-.04-5.94-.06-8.91.02-1.06.03-2.21.21-3.16.67-1.47.71-2.8,1.71-4.17,2.61-1.71,1.13-3.92.57-4.37-1.38-.83-3.59-1.7-7.21-2.01-10.86-.25-2.93,0-5.98.57-8.88.85-4.41,3.09-8.12,6.79-10.88,3.41-2.54,7.28-3.46,11.4-3.78.5-.04,1.13-.42,1.41-.84,2.2-3.19,4.32-6.43,6.48-9.64,2.12-3.17,4.26-6.33,6.51-9.68-.66,0-1.09,0-1.51,0-24.34,0-48.69,0-73.03,0-.49,0-.98,0-1.46.04-2.4.21-5.02,2.8-5.02,4.98.01,18.44.03,36.88.04,55.31,0,.42,0,.85,0,1.4.6,0,1.07,0,1.55,0,2.14,0,4.29-.06,6.43.02,2.69.09,4.15,2.62,2.57,4.66-.57.73-1.87,1.17-2.88,1.24-2.5.17-5.03.06-7.65.06,0,4.72-.01,9.28,0,13.85,0,2.27,1.02,3.9,3.04,5.03,1.34.75,2.72.68,4.13.68,36.37,0,72.74,0,109.11,0,.54,0,1.07.01,1.6-.05,2.23-.26,3.94-1.32,4.92-3.38.28-.59.55-1.25.55-1.89.05-4.7.03-9.41.03-14.23-.65,0-1.22,0-1.79,0-29.51,0-59.01,0-88.52,0-.73,0-1.46-.02-2.17-.16-1.99-.38-2.71-2.66-1.87-4.27.79-1.52,2.17-1.54,3.58-1.54,29.65,0,59.3,0,88.96,0,.58,0,1.15,0,1.9,0Zm-32.89-46.04c2.53-3.12,4.93-6.1,7.35-9.05,4.1-4.99,8.27-9.92,12.31-14.96,1.39-1.73,1.86-3.81,1.22-6.02-.85-2.93-2.74-4.56-5.84-4.94-2.7-.33-4.82.4-6.36,2.67-4.28,6.33-8.57,12.65-12.84,18.98-1.54,2.29-3.03,4.6-4.54,6.9,2.96,2.18,5.78,4.26,8.69,6.41Zm-36.31,32.4c2.69-.46,5.16-1.07,7.67-1.25,2.9-.21,5.83.01,8.75-.07,2.16-.06,4.19-.62,5.88-2.09,2.55-2.22,2.99-5.16,2.63-8.26-.12-1.05-.57-2.3-1.31-2.98-1.63-1.5-3.5-2.76-5.36-3.99-2.42-1.61-4.32-4.16-8.01-3.19-4,1.05-7.35,2.63-9.24,6.51-1.69,3.47-1.91,7.18-1.71,10.93.09,1.59.49,3.15.7,4.4Zm-16.5,70.19h47.84c.29-3.74-1.47-4.74-4.3-4.72-13.14.1-26.28.04-39.43.04-.58,0-1.17-.01-1.75.07-1.28.18-2.06,1.01-2.34,2.2-.17.73-.03,1.54-.03,2.41Zm16.49-10.73h14.8c-1.15-4.83-2.29-9.57-3.42-14.34-2.41,0-4.74-.04-7.07.04-.41.02-1.07.5-1.16.88-1.1,4.45-2.11,8.93-3.15,13.42Zm32.52-87.23c-2.38-1.8-4.74-3.61-7.12-5.39-.64-.48-1.12-.82-1.75.27-1.27,2.2-2.74,4.3-4.26,6.34-.59.79-.31,1.17.24,1.63.29.24.62.42.93.65,1.87,1.36,3.74,2.73,5.68,4.14,2.16-2.63,4.22-5.14,6.28-7.64Z" style="fill: #231f20;"/>
      <path d="m25.87,92.9c-1.65,0-2.76-1.07-2.79-2.72-.03-1.93.83-2.83,2.74-2.83,1.9,0,3.07,1.02,3.1,2.74.04,1.7-1.16,2.8-3.05,2.81Z" style="fill: #231f20;"/>
    </g>
  </g>
</svg>